<svg width="141" height="24" viewBox="0 0 141 24" fill="none" xmlns="http://www.w3.org/2000/svg">
<path d="M16.1942 13.1708C15.6125 14.2447 13.9617 13.6866 14.2207 12.4926L14.2349 12.4337C14.6294 10.7665 15.5871 9.28645 16.9463 8.24345C18.3055 7.20045 19.9829 6.65838 21.6955 6.70876H21.7802C23.0001 6.77234 23.1132 8.51032 21.9239 8.79057L21.8603 8.80469C20.6678 9.08871 19.5484 9.62071 18.5751 10.3661C17.6025 11.1108 16.7997 12.0541 16.2201 13.1332L16.2013 13.1661L16.1942 13.1708Z" fill="#5300F4"/>
<path d="M19.1378 15.0148C18.8733 14.6498 18.723 14.2146 18.7058 13.7643C18.6886 13.3139 18.8052 12.8685 19.0411 12.4844C19.2769 12.1003 19.6213 11.7947 20.0308 11.6063C20.4402 11.4179 20.8964 11.3551 21.3415 11.4258C21.7866 11.4965 22.2008 11.6976 22.5317 12.0037C22.8626 12.3098 23.0953 12.707 23.2004 13.1453C23.3056 13.5836 23.2785 14.0432 23.1225 14.4661C22.9665 14.889 22.6887 15.2561 22.3241 15.5211C22.0817 15.6973 21.807 15.824 21.5156 15.8939C21.2242 15.9638 20.9219 15.9756 20.626 15.9286C20.33 15.8815 20.0463 15.7766 19.7909 15.6198C19.5356 15.463 19.3136 15.2574 19.1378 15.0148Z" fill="#5300F4"/>
<path d="M7.2185 13.5689C7.05836 12.3584 8.72334 11.8403 9.21553 12.9566L9.23908 13.0107C9.89912 14.5916 9.99388 16.3517 9.50741 17.9943C9.02094 19.6369 7.98298 21.0615 6.56853 22.028L6.49552 22.0751C5.47345 22.7415 4.35955 21.4015 5.15553 20.476L5.19792 20.4266C5.99619 19.4964 6.58922 18.4082 6.93826 17.2332C7.29119 16.0586 7.38914 14.8221 7.22557 13.6065L7.2185 13.5689Z" fill="#5300F4"/>
<path d="M3.75463 13.8044C4.18413 13.9435 4.56273 14.2068 4.8425 14.5612C5.12228 14.9155 5.29067 15.3449 5.32636 15.7949C5.36205 16.245 5.26344 16.6955 5.04301 17.0895C4.82257 17.4835 4.49023 17.8033 4.08802 18.0083C3.6858 18.2134 3.2318 18.2945 2.78346 18.2415C2.33511 18.1885 1.91257 18.0036 1.5693 17.7104C1.22603 17.4172 0.977461 17.0287 0.855035 16.5941C0.73261 16.1596 0.741833 15.6985 0.88154 15.2692C1.06865 14.6942 1.47632 14.217 2.01502 13.9423C2.55371 13.6677 3.17938 13.618 3.75463 13.8044Z" fill="#5300F4"/>
<path d="M14.2488 7.97104C15.0919 8.85652 14.0487 10.253 12.9936 9.63837L12.9442 9.60776C11.4799 8.71799 10.3678 7.34991 9.79578 5.73479C9.22379 4.11967 9.22704 2.35658 9.80497 0.743578L9.83323 0.663507C10.2713 -0.476307 11.9527 -0.0429891 11.8585 1.16983C11.8585 1.19103 11.8585 1.21222 11.8585 1.23342C11.7609 2.45575 11.9214 3.68494 12.3295 4.84126C12.7348 5.99761 13.381 7.05476 14.2253 7.94278L14.2512 7.97104H14.2488Z" fill="#5300F4"/>
<path d="M16.9146 5.74086C16.4859 5.88036 16.0254 5.88959 15.5914 5.76738C15.1574 5.64517 14.7694 5.39701 14.4765 5.05429C14.1835 4.71157 13.9988 4.28967 13.9456 3.84194C13.8924 3.39422 13.9732 2.94079 14.1777 2.53898C14.3823 2.13717 14.7013 1.80503 15.0946 1.58457C15.4879 1.36411 15.9378 1.26522 16.3873 1.30041C16.8368 1.33561 17.2657 1.5033 17.6199 1.78229C17.9741 2.06127 18.2376 2.43902 18.3771 2.86777C18.5642 3.4427 18.5152 4.06839 18.2409 4.6072C17.9666 5.146 17.4896 5.55379 16.9146 5.74086Z" fill="#5300F4"/>
<path d="M11.8486 16.6303C10.6476 16.409 10.6711 14.6663 11.8839 14.5438H11.9428C13.6503 14.4047 15.3535 14.8586 16.7653 15.829C18.1771 16.7994 19.2111 18.2269 19.6931 19.8708C19.6931 19.8991 19.7096 19.925 19.7166 19.9532C20.0346 21.1307 18.4143 21.776 17.7808 20.7327L17.7479 20.6786C17.1101 19.6319 16.2587 18.7315 15.2492 18.0363C14.2412 17.3334 13.0946 16.854 11.8863 16.6303H11.8486Z" fill="#5300F4"/>
<path d="M11.0031 19.9956C11.2681 19.6302 11.6355 19.3516 12.0589 19.1951C12.4823 19.0385 12.9426 19.0111 13.3816 19.1162C13.8206 19.2213 14.2185 19.4542 14.5251 19.7855C14.8317 20.1168 15.0332 20.5315 15.104 20.9773C15.1748 21.4231 15.1119 21.8799 14.9231 22.2899C14.7343 22.6999 14.4281 23.0447 14.0433 23.2807C13.6586 23.5167 13.2124 23.6333 12.7614 23.6157C12.3103 23.5981 11.8746 23.4472 11.5094 23.1819C11.2667 23.0061 11.0611 22.7841 10.9044 22.5288C10.7476 22.2734 10.6427 21.9897 10.5956 21.6937C10.5486 21.3978 10.5604 21.0955 10.6303 20.8041C10.7002 20.5127 10.8269 20.238 11.0031 19.9956Z" fill="#5300F4"/>
<path d="M8.70262 8.21361C9.80476 7.6861 10.8221 9.10851 9.90131 9.92098L9.85656 9.96102C8.55614 11.0765 6.91066 11.709 5.19792 11.7519C3.48518 11.7948 1.81009 11.2454 0.455448 10.1965L0.389508 10.1423C-0.552487 9.37462 0.370668 7.90276 1.49635 8.37375L1.55523 8.39966C2.68694 8.87002 3.90493 9.09708 5.1301 9.06612C6.35447 9.03776 7.55872 8.74874 8.66259 8.21832L8.69556 8.20184L8.70262 8.21361Z" fill="#5300F4"/>
<path d="M7.40772 4.99198C7.40772 5.44331 7.27389 5.88451 7.02314 6.25978C6.77239 6.63505 6.41599 6.92754 5.99901 7.10026C5.58204 7.27297 5.1232 7.31816 4.68054 7.23011C4.23788 7.14206 3.83127 6.92472 3.51213 6.60558C3.19299 6.28644 2.97565 5.87983 2.8876 5.43717C2.79955 4.99451 2.84474 4.53568 3.01746 4.1187C3.19018 3.70172 3.48266 3.34532 3.85794 3.09458C4.23321 2.84383 4.6744 2.70999 5.12574 2.70999C5.4255 2.70968 5.72238 2.7685 5.99938 2.88307C6.27638 2.99764 6.52807 3.16572 6.74003 3.37768C6.952 3.58964 7.12008 3.84133 7.23465 4.11833C7.34922 4.39534 7.40803 4.69222 7.40772 4.99198Z" fill="#5300F4"/>
<path d="M37.1131 2.42033C37.9573 2.40089 38.7966 2.55257 39.5806 2.86624C40.3646 3.17991 41.0769 3.64907 41.6747 4.24545C42.8576 5.43659 43.5214 7.04714 43.5214 8.72581C43.5214 10.4045 42.8576 12.015 41.6747 13.2062C41.0773 13.803 40.365 14.2724 39.5809 14.5861C38.7969 14.8998 37.9574 15.0513 37.1131 15.0313H33.8161V21.2014H30.1094V2.42033H37.1131ZM37.1131 11.5695C37.4792 11.5778 37.8429 11.5085 38.1802 11.366C38.5176 11.2235 38.8209 11.0111 39.0701 10.7429C39.5717 10.1848 39.8492 9.46089 39.8492 8.7105C39.8492 7.96012 39.5717 7.23624 39.0701 6.67815C38.8184 6.41442 38.5142 6.20647 38.1771 6.06773C37.84 5.92899 37.4775 5.86256 37.1131 5.87274H33.8161V11.56L37.1131 11.5695Z" fill="#5300F4"/>
<path d="M56.3227 19.5246C54.9782 20.8089 53.1846 21.5162 51.3254 21.4953C49.4662 21.4745 47.689 20.7271 46.3736 19.413C45.0583 18.0989 44.3093 16.3223 44.2867 14.4632C44.2641 12.604 44.9697 10.8098 46.2527 9.46408C47.2457 8.46511 48.5133 7.78394 49.8944 7.50716C51.2755 7.23038 52.7077 7.37049 54.0089 7.90967C55.3102 8.44885 56.4218 9.36276 57.2023 10.5352C57.9829 11.7077 58.3973 13.0858 58.3927 14.4943C58.4115 15.43 58.2374 16.3595 57.8813 17.2249C57.5251 18.0904 56.9946 18.8732 56.3227 19.5246ZM48.6901 17.1508C49.0266 17.4942 49.4303 17.7643 49.8761 17.9443C50.3219 18.1242 50.8001 18.21 51.2806 18.1964C51.7628 18.209 52.2424 18.1227 52.69 17.9429C53.1375 17.763 53.5435 17.4935 53.8829 17.1508C54.5564 16.4302 54.931 15.4807 54.931 14.4943C54.931 13.508 54.5564 12.5585 53.8829 11.8379C53.5435 11.4952 53.1375 11.2256 52.69 11.0458C52.2424 10.866 51.7628 10.7797 51.2806 10.7923C50.8001 10.7786 50.3219 10.8645 49.8761 11.0444C49.4303 11.2243 49.0266 11.4945 48.6901 11.8379C48.0254 12.5629 47.6566 13.5107 47.6566 14.4943C47.6566 15.4779 48.0254 16.4258 48.6901 17.1508Z" fill="#5300F4"/>
<path d="M67.2125 21.5758C65.1919 21.5758 63.5066 20.896 62.1564 19.5364C61.4933 18.8777 60.9716 18.0905 60.6234 17.2231C60.2751 16.3557 60.1076 15.4264 60.1311 14.492C60.1076 13.5576 60.2751 12.6283 60.6234 11.7609C60.9716 10.8935 61.4933 10.1064 62.1564 9.44763C63.505 8.08801 65.1904 7.40821 67.2125 7.40821C68.4657 7.39477 69.6993 7.72024 70.7827 8.3502C71.8202 8.94059 72.6669 9.81585 73.2225 10.8724L70.2481 12.6269C69.982 12.076 69.556 11.6181 69.0259 11.3128C68.4691 10.9872 67.8339 10.8202 67.189 10.83C66.714 10.8157 66.241 10.899 65.7995 11.0748C65.358 11.2506 64.9572 11.5152 64.622 11.8521C63.9687 12.5701 63.6067 13.5059 63.6067 14.4767C63.6067 15.4475 63.9687 16.3833 64.622 17.1013C64.9574 17.4412 65.3594 17.7083 65.8027 17.8858C66.246 18.0632 66.7211 18.1473 67.1984 18.1328C67.8509 18.1439 68.4946 17.9814 69.0635 17.6618C69.5938 17.3638 70.0197 16.91 70.2834 16.3619L73.2884 18.0787C72.7 19.1408 71.8349 20.0238 70.785 20.6338C69.7025 21.268 68.467 21.5937 67.2125 21.5758Z" fill="#5300F4"/>
<path d="M87.4649 21.2014H83.4472L78.563 15.1067V21.2014H75.1035V2.42035H78.563V13.7243L83.1788 7.79914H87.3094L81.9189 14.4261L87.4649 21.2014Z" fill="#5300F4"/>
<path d="M91.1483 15.9238C91.6193 17.6053 92.88 18.446 94.9305 18.446C96.254 18.446 97.2556 17.9986 97.9354 17.1037L100.726 18.7145C99.4026 20.622 97.4526 21.5758 94.8763 21.5758C92.6579 21.5758 90.8783 20.9046 89.5375 19.5623C88.1967 18.2199 87.5264 16.5298 87.5264 14.492C87.5264 12.4714 88.1881 10.7852 89.5116 9.43347C90.8351 8.0817 92.5339 7.40661 94.6078 7.40818C96.5766 7.40818 98.2 8.08798 99.4779 9.4476C100.756 10.8072 101.396 12.4887 101.397 14.492C101.394 14.966 101.349 15.4388 101.263 15.905L91.1483 15.9238ZM91.0942 13.2415H97.9354C97.7376 12.3277 97.331 11.6479 96.7155 11.2021C96.1041 10.7562 95.3645 10.5207 94.6078 10.5309C93.7813 10.4975 92.9681 10.7467 92.3023 11.2374C91.6752 11.7385 91.2469 12.4464 91.0942 13.2344V13.2415Z" fill="#5300F4"/>
<path d="M111.081 11.1149H108.051V16.6939C108.034 16.8788 108.056 17.0652 108.116 17.2408C108.176 17.4165 108.273 17.5776 108.399 17.7136C108.686 17.9494 109.047 18.0776 109.419 18.0763C109.973 18.1027 110.528 18.098 111.081 18.0622V21.2014C108.703 21.4698 107.026 21.2461 106.051 20.5302C105.076 19.8143 104.589 18.5355 104.589 16.6939V11.1149H102.255V7.78733H104.589V5.07674L108.051 4.03113V7.79911H111.081V11.1149Z" fill="#5300F4"/>
<path d="M120.096 5.37113C118.201 5.22983 117.253 5.99049 117.253 7.65311V7.78735H120.096V11.1149H117.253V21.2014H113.791V11.1149H111.86V7.78735H113.791V7.65311C113.791 5.75813 114.319 4.31845 115.374 3.33406C116.429 2.34968 117.999 1.92029 120.084 2.04588L120.096 5.37113Z" fill="#5300F4"/>
<path d="M130.534 7.78734H133.996V21.2108H130.534V19.6918C129.692 20.9478 128.358 21.5758 126.53 21.5758C125.855 21.596 125.183 21.4752 124.558 21.2209C123.932 20.9667 123.366 20.5846 122.897 20.0992C121.937 19.1164 121.458 17.7568 121.46 16.0204V7.77792H124.922V15.5941C124.922 16.489 125.163 17.1735 125.645 17.6477C125.904 17.8886 126.208 18.0752 126.54 18.1966C126.872 18.3179 127.225 18.3715 127.578 18.3542C127.974 18.3725 128.37 18.3078 128.739 18.1642C129.109 18.0206 129.444 17.8014 129.724 17.5205C130.261 16.9663 130.529 16.135 130.529 15.0266L130.534 7.78734Z" fill="#5300F4"/>
<path d="M137.155 21.2014V1.61493H140.617V21.2014H137.155Z" fill="#5300F4"/>
</svg>
